<?xml version="1.0" encoding="UTF-8" standalone="no"?>
<svg width="60px" height="60px" viewBox="0 0 60 60" version="1.1" xmlns="http://www.w3.org/2000/svg" xmlns:xlink="http://www.w3.org/1999/xlink">
    <!-- Generator: Sketch 3.8.3 (29802) - http://www.bohemiancoding.com/sketch -->
    <title>data</title>
    <desc>Created with Sketch.</desc>
    <defs></defs>
    <g id="Business" stroke="none" stroke-width="1" fill="none" fill-rule="evenodd">
        <g id="Icon-9" fill="#3F7CAC">
            <path d="M60,59 C60,59.552 59.553,60 59,60 L53,60 C52.447,60 52,59.552 52,59 L52,28 L48,28 L48,59 C48,59.552 47.553,60 47,60 L43,60 C42.447,60 42,59.552 42,59 L42,42 L38.083,42 L38.083,59 C38.083,59.552 37.636,60 37.083,60 L33,60 C32.447,60 32,59.552 32,59 L32,36 L28,36 L28,59 C28,59.552 27.553,60 27,60 L23,60 C22.447,60 22,59.552 22,59 L22,40 L18,40 L18,59 C18,59.552 17.553,60 17,60 L13,60 C12.447,60 12,59.552 12,59 L12,48 L8,48 L8,59 C8,59.552 7.553,60 7,60 L1,60 C0.447,60 0,59.552 0,59 C0,58.448 0.447,58 1,58 L6,58 L6,47 C6,46.448 6.447,46 7,46 L13,46 C13.553,46 14,46.448 14,47 L14,58 L16,58 L16,39 C16,38.448 16.447,38 17,38 L23,38 C23.553,38 24,38.448 24,39 L24,58 L26,58 L26,35 C26,34.448 26.447,34 27,34 L33,34 C33.553,34 34,34.448 34,35 L34,58 L36.083,58 L36.083,41 C36.083,40.448 36.53,40 37.083,40 L43,40 C43.553,40 44,40.448 44,41 L44,58 L46,58 L46,27 C46,26.448 46.447,26 47,26 L53,26 C53.553,26 54,26.448 54,27 L54,58 L59,58 C59.553,58 60,58.448 60,59 L60,59 Z M0,34 C0,31.794 1.794,30 4,30 C4.997,30 5.899,30.38 6.601,30.985 L26.247,11.339 C26.097,10.918 26,10.472 26,10 C26,7.794 27.794,6 30,6 C32.206,6 34,7.794 34,10 C34,10.737 33.785,11.42 33.435,12.014 L37.986,16.564 C38.58,16.214 39.263,16 40,16 C40.739,16 41.424,16.215 42.019,16.567 L52.566,6.019 C52.216,5.424 52,4.74 52,4 C52,1.794 53.794,0 56,0 C58.206,0 60,1.794 60,4 C60,6.206 58.206,8 56,8 C55.261,8 54.576,7.785 53.98,7.433 L43.434,17.981 C43.784,18.576 44,19.26 44,20 C44,22.206 42.206,24 40,24 C37.794,24 36,22.206 36,20 C36,19.258 36.217,18.572 36.569,17.976 L32.024,13.431 C31.428,13.784 30.742,14 30,14 C29.003,14 28.101,13.62 27.399,13.015 L7.753,32.661 C7.903,33.082 8,33.528 8,34 C8,36.206 6.206,38 4,38 C1.794,38 0,36.206 0,34 L0,34 Z M54,4 C54,4.546 54.221,5.04 54.576,5.401 C54.58,5.405 54.586,5.406 54.59,5.41 C54.594,5.414 54.595,5.42 54.599,5.424 C54.96,5.779 55.454,6 56,6 C57.102,6 58,5.103 58,4 C58,2.897 57.102,2 56,2 C54.897,2 54,2.897 54,4 L54,4 Z M40,18 C38.897,18 38,18.897 38,20 C38,21.103 38.897,22 40,22 C41.102,22 42,21.103 42,20 C42,18.897 41.102,18 40,18 L40,18 Z M28,10 C28,11.103 28.897,12 30,12 C31.103,12 32,11.103 32,10 C32,8.897 31.103,8 30,8 C28.897,8 28,8.897 28,10 L28,10 Z M2,34 C2,35.103 2.897,36 4,36 C5.102,36 6,35.103 6,34 C6,32.897 5.102,32 4,32 C2.897,32 2,32.897 2,34 L2,34 Z" id="data"></path>
        </g>
    </g>
</svg>